<mxfile host="drawio-plugin" modified="2022-11-07T04:33:18.595Z" agent="5.0 (Windows NT 6.2; Win64; x64) AppleWebKit/537.36 (KHTML, like Gecko) Chrome/98.0.4758.102 Safari/537.36" etag="vDrHFqjNZjGUtUxbpddp" version="15.5.4" type="embed"><diagram id="imdrc2UIk3vCbtPCmj0C" name="Page-1"><mxGraphModel dx="488" dy="520" grid="1" gridSize="10" guides="1" tooltips="1" connect="1" arrows="1" fold="1" page="1" pageScale="1" pageWidth="850" pageHeight="1100" math="0" shadow="0"><root><mxCell id="0"/><mxCell id="1" parent="0"/><mxCell id="6" value="HandView" style="swimlane;fontStyle=1;align=center;verticalAlign=top;childLayout=stackLayout;horizontal=1;startSize=26;horizontalStack=0;resizeParent=1;resizeParentMax=0;resizeLast=0;collapsible=1;marginBottom=0;" parent="1" vertex="1"><mxGeometry x="335" y="290" width="180" height="130" as="geometry"/></mxCell><mxCell id="10" value="- handContainer: JPanel&#10;- tiles: List&lt;LetterTile&gt;" style="text;strokeColor=none;fillColor=none;align=left;verticalAlign=top;spacingLeft=4;spacingRight=4;overflow=hidden;rotatable=0;points=[[0,0.5],[1,0.5]];portConstraint=eastwest;" parent="6" vertex="1"><mxGeometry y="26" width="180" height="34" as="geometry"/></mxCell><mxCell id="8" value="" style="line;strokeWidth=1;fillColor=none;align=left;verticalAlign=middle;spacingTop=-1;spacingLeft=3;spacingRight=3;rotatable=0;labelPosition=right;points=[];portConstraint=eastwest;" parent="6" vertex="1"><mxGeometry y="60" width="180" height="8" as="geometry"/></mxCell><mxCell id="9" value="+ update(ScrabbleModel): void&#10;- setTiles(Hand): void" style="text;strokeColor=none;fillColor=none;align=left;verticalAlign=top;spacingLeft=4;spacingRight=4;overflow=hidden;rotatable=0;points=[[0,0.5],[1,0.5]];portConstraint=eastwest;" parent="6" vertex="1"><mxGeometry y="68" width="180" height="62" as="geometry"/></mxCell><mxCell id="15" value="&lt;&lt;interface&gt;&gt;&#10;ScrabbleView" style="swimlane;fontStyle=1;childLayout=stackLayout;horizontal=1;startSize=30;fillColor=none;horizontalStack=0;resizeParent=1;resizeParentMax=0;resizeLast=0;collapsible=1;marginBottom=0;" parent="1" vertex="1"><mxGeometry x="335" y="180" width="180" height="54" as="geometry"/></mxCell><mxCell id="17" value="+ update(ScrabbleEvent): void&#10;" style="text;strokeColor=none;fillColor=none;align=left;verticalAlign=top;spacingLeft=4;spacingRight=4;overflow=hidden;rotatable=0;points=[[0,0.5],[1,0.5]];portConstraint=eastwest;fontStyle=0" parent="15" vertex="1"><mxGeometry y="30" width="180" height="24" as="geometry"/></mxCell><mxCell id="21" value="ScrabbleModel" style="swimlane;fontStyle=1;align=center;verticalAlign=top;childLayout=stackLayout;horizontal=1;startSize=26;horizontalStack=0;resizeParent=1;resizeParentMax=0;resizeLast=0;collapsible=1;marginBottom=0;" parent="1" vertex="1"><mxGeometry x="10" y="47" width="270" height="88" as="geometry"/></mxCell><mxCell id="22" value="" style="line;strokeWidth=1;fillColor=none;align=left;verticalAlign=middle;spacingTop=-1;spacingLeft=3;spacingRight=3;rotatable=0;labelPosition=right;points=[];portConstraint=eastwest;" parent="21" vertex="1"><mxGeometry y="26" width="270" height="2" as="geometry"/></mxCell><mxCell id="23" value="+ modelListeners: List&lt;ScrabbleModelListener&gt;" style="text;strokeColor=none;fillColor=none;align=left;verticalAlign=top;spacingLeft=4;spacingRight=4;overflow=hidden;rotatable=0;points=[[0,0.5],[1,0.5]];portConstraint=eastwest;" parent="21" vertex="1"><mxGeometry y="28" width="270" height="22" as="geometry"/></mxCell><mxCell id="24" value="" style="line;strokeWidth=1;fillColor=none;align=left;verticalAlign=middle;spacingTop=-1;spacingLeft=3;spacingRight=3;rotatable=0;labelPosition=right;points=[];portConstraint=eastwest;" parent="21" vertex="1"><mxGeometry y="50" width="270" height="8" as="geometry"/></mxCell><mxCell id="25" value="&lt;span&gt;+ getCurHand(): void&lt;br&gt;&amp;nbsp;-&amp;nbsp;&lt;/span&gt;notifyListeners&lt;span&gt;(): void&lt;br&gt;&lt;/span&gt;" style="text;html=1;strokeColor=none;fillColor=none;align=left;verticalAlign=middle;whiteSpace=wrap;rounded=0;" parent="21" vertex="1"><mxGeometry y="58" width="270" height="30" as="geometry"/></mxCell><mxCell id="26" value="" style="endArrow=diamondThin;endFill=0;endSize=24;html=1;rounded=0;" parent="1" source="49" target="21" edge="1"><mxGeometry width="160" relative="1" as="geometry"><mxPoint x="160" y="140" as="sourcePoint"/><mxPoint x="320" y="140" as="targetPoint"/></mxGeometry></mxCell><mxCell id="27" value="LetterTile" style="swimlane;fontStyle=1;align=center;verticalAlign=top;childLayout=stackLayout;horizontal=1;startSize=26;horizontalStack=0;resizeParent=1;resizeParentMax=0;resizeLast=0;collapsible=1;marginBottom=0;" parent="1" vertex="1"><mxGeometry x="570" y="297" width="240" height="106" as="geometry"/></mxCell><mxCell id="28" value="- controller: HandController" style="text;strokeColor=none;fillColor=none;align=left;verticalAlign=top;spacingLeft=4;spacingRight=4;overflow=hidden;rotatable=0;points=[[0,0.5],[1,0.5]];portConstraint=eastwest;" parent="27" vertex="1"><mxGeometry y="26" width="240" height="24" as="geometry"/></mxCell><mxCell id="29" value="" style="line;strokeWidth=1;fillColor=none;align=left;verticalAlign=middle;spacingTop=-1;spacingLeft=3;spacingRight=3;rotatable=0;labelPosition=right;points=[];portConstraint=eastwest;" parent="27" vertex="1"><mxGeometry y="50" width="240" height="8" as="geometry"/></mxCell><mxCell id="48" value="+ LetterTile(Letter): void" style="text;strokeColor=none;fillColor=none;align=left;verticalAlign=top;spacingLeft=4;spacingRight=4;overflow=hidden;rotatable=0;points=[[0,0.5],[1,0.5]];portConstraint=eastwest;" parent="27" vertex="1"><mxGeometry y="58" width="240" height="26" as="geometry"/></mxCell><mxCell id="30" value="- addHandController(): void" style="text;strokeColor=none;fillColor=none;align=left;verticalAlign=top;spacingLeft=4;spacingRight=4;overflow=hidden;rotatable=0;points=[[0,0.5],[1,0.5]];portConstraint=eastwest;" parent="27" vertex="1"><mxGeometry y="84" width="240" height="22" as="geometry"/></mxCell><mxCell id="31" value="JPanel" style="swimlane;fontStyle=1;align=center;verticalAlign=top;childLayout=stackLayout;horizontal=1;startSize=26;horizontalStack=0;resizeParent=1;resizeParentMax=0;resizeLast=0;collapsible=1;marginBottom=0;" parent="1" vertex="1"><mxGeometry x="600" y="200" width="180" height="34" as="geometry"/></mxCell><mxCell id="33" value="" style="line;strokeWidth=1;fillColor=none;align=left;verticalAlign=middle;spacingTop=-1;spacingLeft=3;spacingRight=3;rotatable=0;labelPosition=right;points=[];portConstraint=eastwest;" parent="31" vertex="1"><mxGeometry y="26" width="180" height="8" as="geometry"/></mxCell><mxCell id="41" value="" style="endArrow=block;endSize=16;endFill=0;html=1;rounded=0;" parent="1" source="27" target="31" edge="1"><mxGeometry width="160" relative="1" as="geometry"><mxPoint x="400" y="270" as="sourcePoint"/><mxPoint x="560" y="270" as="targetPoint"/></mxGeometry></mxCell><mxCell id="43" value="" style="endArrow=diamondThin;endFill=0;endSize=24;html=1;rounded=0;" parent="1" source="27" target="6" edge="1"><mxGeometry width="160" relative="1" as="geometry"><mxPoint x="340" y="149.51999999999998" as="sourcePoint"/><mxPoint x="290" y="150.91999999999996" as="targetPoint"/></mxGeometry></mxCell><mxCell id="44" value="" style="endArrow=block;dashed=1;endFill=0;endSize=12;html=1;rounded=0;" parent="1" source="6" target="15" edge="1"><mxGeometry width="160" relative="1" as="geometry"><mxPoint x="400" y="250" as="sourcePoint"/><mxPoint x="560" y="250" as="targetPoint"/></mxGeometry></mxCell><mxCell id="49" value="&lt;&lt;interface&gt;&gt;&#10;ScrabbleModelListener" style="swimlane;fontStyle=1;childLayout=stackLayout;horizontal=1;startSize=30;fillColor=none;horizontalStack=0;resizeParent=1;resizeParentMax=0;resizeLast=0;collapsible=1;marginBottom=0;" parent="1" vertex="1"><mxGeometry x="335" y="64" width="180" height="54" as="geometry"/></mxCell><mxCell id="50" value="+ update(ScrabbleEvent): void&#10;" style="text;strokeColor=none;fillColor=none;align=left;verticalAlign=top;spacingLeft=4;spacingRight=4;overflow=hidden;rotatable=0;points=[[0,0.5],[1,0.5]];portConstraint=eastwest;fontStyle=0" parent="49" vertex="1"><mxGeometry y="30" width="180" height="24" as="geometry"/></mxCell><mxCell id="52" value="" style="endArrow=block;endSize=16;endFill=0;html=1;rounded=0;" parent="1" source="15" target="49" edge="1"><mxGeometry width="160" relative="1" as="geometry"><mxPoint x="700" y="300" as="sourcePoint"/><mxPoint x="700" y="244" as="targetPoint"/></mxGeometry></mxCell><mxCell id="ImXNTNphsxme2Rl1AU6S-52" value="ScrabbleEvent" style="swimlane;fontStyle=1;align=center;verticalAlign=top;childLayout=stackLayout;horizontal=1;startSize=26;horizontalStack=0;resizeParent=1;resizeParentMax=0;resizeLast=0;collapsible=1;marginBottom=0;" vertex="1" parent="1"><mxGeometry x="20" y="299" width="270" height="100" as="geometry"/></mxCell><mxCell id="ImXNTNphsxme2Rl1AU6S-53" value="" style="line;strokeWidth=1;fillColor=none;align=left;verticalAlign=middle;spacingTop=-1;spacingLeft=3;spacingRight=3;rotatable=0;labelPosition=right;points=[];portConstraint=eastwest;" vertex="1" parent="ImXNTNphsxme2Rl1AU6S-52"><mxGeometry y="26" width="270" height="2" as="geometry"/></mxCell><mxCell id="ImXNTNphsxme2Rl1AU6S-54" value="- model: ScrabbleModel" style="text;strokeColor=none;fillColor=none;align=left;verticalAlign=top;spacingLeft=4;spacingRight=4;overflow=hidden;rotatable=0;points=[[0,0.5],[1,0.5]];portConstraint=eastwest;" vertex="1" parent="ImXNTNphsxme2Rl1AU6S-52"><mxGeometry y="28" width="270" height="22" as="geometry"/></mxCell><mxCell id="ImXNTNphsxme2Rl1AU6S-55" value="" style="line;strokeWidth=1;fillColor=none;align=left;verticalAlign=middle;spacingTop=-1;spacingLeft=3;spacingRight=3;rotatable=0;labelPosition=right;points=[];portConstraint=eastwest;" vertex="1" parent="ImXNTNphsxme2Rl1AU6S-52"><mxGeometry y="50" width="270" height="8" as="geometry"/></mxCell><mxCell id="ImXNTNphsxme2Rl1AU6S-56" value="&lt;span&gt;+ ScrabbleEvent(): void&lt;br&gt;+ getModel(): ScrabbleModel&lt;br&gt;&lt;/span&gt;" style="text;html=1;strokeColor=none;fillColor=none;align=left;verticalAlign=middle;whiteSpace=wrap;rounded=0;" vertex="1" parent="ImXNTNphsxme2Rl1AU6S-52"><mxGeometry y="58" width="270" height="42" as="geometry"/></mxCell><mxCell id="ImXNTNphsxme2Rl1AU6S-57" value="" style="endArrow=block;endSize=16;endFill=0;html=1;rounded=0;" edge="1" parent="1" source="ImXNTNphsxme2Rl1AU6S-52" target="ImXNTNphsxme2Rl1AU6S-58"><mxGeometry width="160" relative="1" as="geometry"><mxPoint x="144.5" y="262" as="sourcePoint"/><mxPoint x="155" y="250" as="targetPoint"/></mxGeometry></mxCell><mxCell id="ImXNTNphsxme2Rl1AU6S-58" value="AWTEvent" style="swimlane;fontStyle=1;align=center;verticalAlign=top;childLayout=stackLayout;horizontal=1;startSize=26;horizontalStack=0;resizeParent=1;resizeParentMax=0;resizeLast=0;collapsible=1;marginBottom=0;" vertex="1" parent="1"><mxGeometry x="20" y="230" width="270" height="36" as="geometry"/></mxCell><mxCell id="ImXNTNphsxme2Rl1AU6S-59" value="" style="line;strokeWidth=1;fillColor=none;align=left;verticalAlign=middle;spacingTop=-1;spacingLeft=3;spacingRight=3;rotatable=0;labelPosition=right;points=[];portConstraint=eastwest;" vertex="1" parent="ImXNTNphsxme2Rl1AU6S-58"><mxGeometry y="26" width="270" height="2" as="geometry"/></mxCell><mxCell id="ImXNTNphsxme2Rl1AU6S-61" value="" style="line;strokeWidth=1;fillColor=none;align=left;verticalAlign=middle;spacingTop=-1;spacingLeft=3;spacingRight=3;rotatable=0;labelPosition=right;points=[];portConstraint=eastwest;" vertex="1" parent="ImXNTNphsxme2Rl1AU6S-58"><mxGeometry y="28" width="270" height="8" as="geometry"/></mxCell></root></mxGraphModel></diagram></mxfile>